# xmcd
#
# Track frame offsets: 
#        150
#        44459
#        73995
#        98907
#        126510
#        145932
#        179479
#        200946
#        221987
#        235458
#        260115
#
# Disc length: 4059 seconds
#
# Revision: 11
# Processed by: cddbd v1.5.2PL0 Copyright (c) Steve Scherf et al.
# Submitted via: ExactAudioCopy v0.99pb4
#
DISCID=c50fd90b
DTITLE=David Oistrakh - David Oistrakh - The Complete EMI Recordings [
DTITLE=Disc 15]
DYEAR=2008
DGENRE=Chamber Music
TTITLE0=Syzmanowski: Violin Sonata in D minor, op.9 (rec.1954) - 1. Al
TTITLE0=legro moderato
TTITLE1=Syzmanowski: Violin Sonata in D minor, op.9 (rec.1954) - 2. An
TTITLE1=dantino tranquillo e dolce
TTITLE2=Syzmanowski: Violin Sonata in D minor, op.9 (rec.1954) - 3. Al
TTITLE2=legro molto quasi presto
TTITLE3=Joseph Suk: Six Pieces, op.7 no.1 "Love Song" (rec.1956)
TTITLE4=Zoltán Kodály: Three Hungarian Folk Songs (rec.1956)
TTITLE5=Henryk Wieniawski: Légende, op.17 (rec.1956)
TTITLE6=Aleksander Zarzycki: Mazurka in G major, op.26 (rec.1956)
TTITLE7=Debussy: Suite bergamasque - 3. Clair de lune (rec.1956)
TTITLE8=Falla: Suite populaire española - Jota (rec.1956)
TTITLE9=Tchaikovsky: Scherzo-Valse, op.34 (rec.1956)
TTITLE10=Ysaÿe: Extase, op.21 (rec.1956)
EXTD=
EXTT0=
EXTT1=
EXTT2=
EXTT3=
EXTT4=
EXTT5=
EXTT6=
EXTT7=
EXTT8=
EXTT9=
EXTT10=
PLAYORDER=
